<?xml version="1.0" encoding="utf-8"?>
<!-- Generator: Adobe Illustrator 22.0.1, SVG Export Plug-In . SVG Version: 6.00 Build 0)  -->
<svg version="1.1" id="Layer_1" xmlns="http://www.w3.org/2000/svg" xmlns:xlink="http://www.w3.org/1999/xlink" x="0px" y="0px"
	 viewBox="0 0 512 678" style="enable-background:new 0 0 512 678;" xml:space="preserve">
<style type="text/css">
	.st0{fill:#FFFFFF;}
</style>
<g>
	<polygon class="st0" points="397.5,148.2 272.8,148.2 239.2,148.2 114.5,148.2 114.5,148.5 151.8,200.2 239.2,200.2 239.2,387.7 
		252,387.7 272.8,342.9 272.8,200.2 360,200.2 	"/>
</g>
<g>
	<rect x="179.5" y="230.8" class="st0" width="28.6" height="133.7"/>
</g>
<g>
	
		<rect x="309.2" y="217.6" transform="matrix(0.7791 0.6268 -0.6268 0.7791 228.1491 -144.9532)" class="st0" width="21.2" height="67.3"/>
</g>
<g>
	
		<rect x="309.2" y="301.6" transform="matrix(0.7791 -0.6268 0.6268 0.7791 -139.5412 274.5016)" class="st0" width="21.2" height="67.3"/>
</g>
<g>
	<path class="st0" d="M256,33.3l192.9,111.3v222.7L256,478.7L63.1,367.3V144.7L256,33.3 M256,0l-14.4,8.3L48.7,119.7L34.3,128v16.7
		v222.7V384l14.4,8.3l192.9,111.3L256,512l14.4-8.3l192.9-111.3l14.4-8.3v-16.7V144.7V128l-14.4-8.3L270.4,8.3L256,0L256,0z"/>
</g>
<g>
	<path class="st0" d="M76.3,550.8H62.8v-7.9h36.6v7.9H86v34.1h-9.7V550.8z"/>
	<path class="st0" d="M154.8,582.8c-3.5-1.9-6.2-4.5-8.2-7.8s-3-7-3-11.1c0-4.1,1-7.8,3-11.1s4.7-5.9,8.2-7.8
		c3.5-1.9,7.4-2.8,11.8-2.8c4.4,0,8.3,0.9,11.8,2.8c3.5,1.9,6.2,4.5,8.2,7.8c2,3.3,3,7,3,11.1c0,4.1-1,7.8-3,11.1
		c-2,3.3-4.7,5.9-8.2,7.8s-7.4,2.8-11.8,2.8C162.3,585.6,158.3,584.7,154.8,582.8z M173.4,575.6c2-1.1,3.6-2.7,4.7-4.8
		s1.7-4.4,1.7-7c0-2.6-0.6-4.9-1.7-7s-2.7-3.6-4.7-4.8c-2-1.1-4.2-1.7-6.7-1.7c-2.5,0-4.7,0.6-6.7,1.7c-2,1.1-3.6,2.7-4.7,4.8
		c-1.1,2-1.7,4.4-1.7,7c0,2.6,0.6,4.9,1.7,7c1.1,2,2.7,3.6,4.7,4.8c2,1.1,4.2,1.7,6.7,1.7C169.1,577.4,171.4,576.8,173.4,575.6z"/>
	<path class="st0" d="M254.5,568.4l-5.6,5.9v10.6h-9.7v-42h9.7v19.6l18.6-19.6h10.8l-17.4,18.7l18.4,23.3h-11.3L254.5,568.4z"/>
	<path class="st0" d="M342.9,570v14.9h-9.7v-15l-16.3-27h10.3l11.2,18.7l11.2-18.7h9.5L342.9,570z"/>
	<path class="st0" d="M412.3,582.8c-3.5-1.9-6.2-4.5-8.2-7.8c-2-3.3-3-7-3-11.1c0-4.1,1-7.8,3-11.1c2-3.3,4.7-5.9,8.2-7.8
		c3.5-1.9,7.4-2.8,11.8-2.8c4.4,0,8.3,0.9,11.8,2.8c3.5,1.9,6.2,4.5,8.2,7.8s3,7,3,11.1c0,4.1-1,7.8-3,11.1s-4.7,5.9-8.2,7.8
		c-3.5,1.9-7.4,2.8-11.8,2.8C419.7,585.6,415.8,584.7,412.3,582.8z M430.8,575.6c2-1.1,3.6-2.7,4.7-4.8s1.7-4.4,1.7-7
		c0-2.6-0.6-4.9-1.7-7s-2.7-3.6-4.7-4.8c-2-1.1-4.2-1.7-6.7-1.7c-2.5,0-4.7,0.6-6.7,1.7c-2,1.1-3.6,2.7-4.7,4.8
		c-1.1,2-1.7,4.4-1.7,7c0,2.6,0.6,4.9,1.7,7c1.1,2,2.7,3.6,4.7,4.8c2,1.1,4.2,1.7,6.7,1.7C426.6,577.4,428.8,576.8,430.8,575.6z"/>
	<path class="st0" d="M50.8,647.9H31.3l-3.7,9h-10l18.7-42h9.6l18.8,42H54.5L50.8,647.9z M47.7,640.5l-6.7-16.1l-6.7,16.1H47.7z"/>
	<path class="st0" d="M139.1,635.3h8.9v17c-2.3,1.7-4.9,3-7.9,4s-6,1.4-9.1,1.4c-4.4,0-8.3-0.9-11.8-2.8c-3.5-1.9-6.2-4.4-8.2-7.7
		c-2-3.3-3-7-3-11.2s1-7.9,3-11.2c2-3.3,4.7-5.9,8.3-7.7c3.5-1.9,7.5-2.8,11.9-2.8c3.7,0,7,0.6,10,1.9c3,1.2,5.5,3,7.6,5.4l-6.2,5.8
		c-3-3.2-6.6-4.7-10.9-4.7c-2.7,0-5.1,0.6-7.1,1.7c-2.1,1.1-3.7,2.7-4.9,4.7c-1.2,2-1.7,4.4-1.7,7c0,2.6,0.6,4.9,1.7,7
		c1.2,2,2.8,3.6,4.8,4.8c2.1,1.1,4.4,1.7,7,1.7c2.8,0,5.3-0.6,7.6-1.8V635.3z"/>
	<path class="st0" d="M231.8,649.1v7.8h-32.5v-42H231v7.8h-22.1v9.1h19.5v7.6h-19.5v9.7H231.8z"/>
	<path class="st0" d="M320.3,614.9v42h-8l-20.9-25.5v25.5h-9.6v-42h8l20.9,25.5v-25.5H320.3z"/>
	<path class="st0" d="M380.9,654.8c-3.5-1.9-6.2-4.4-8.2-7.7c-2-3.3-3-7-3-11.2s1-7.9,3-11.2c2-3.3,4.7-5.9,8.2-7.7
		c3.5-1.9,7.4-2.8,11.7-2.8c3.6,0,6.9,0.6,9.9,1.9c2.9,1.3,5.4,3.1,7.4,5.5l-6.2,5.8c-2.8-3.3-6.4-4.9-10.6-4.9
		c-2.6,0-4.9,0.6-7,1.7c-2,1.1-3.6,2.7-4.8,4.8c-1.1,2-1.7,4.4-1.7,7c0,2.6,0.6,4.9,1.7,7c1.1,2,2.7,3.6,4.8,4.8
		c2,1.1,4.4,1.7,7,1.7c4.2,0,7.7-1.7,10.6-5l6.2,5.8c-2,2.4-4.5,4.3-7.4,5.6c-3,1.3-6.3,1.9-9.9,1.9
		C388.3,657.6,384.4,656.7,380.9,654.8z"/>
	<path class="st0" d="M478.4,642v14.9h-9.7v-15l-16.3-27h10.3l11.2,18.7l11.2-18.7h9.5L478.4,642z"/>
</g>
</svg>
