<?xml version="1.0" ?><svg data-name="Layer 1" id="Layer_1" viewBox="0 0 128 128" xmlns="http://www.w3.org/2000/svg"><title/><circle cx="47" cy="46" r="6"/><path d="M76,56c-5.52,0-10,2-10,7V56H56V86H66V70c0-1.66,1-7,5-7,2.76,0,5,1.34,5,3V86H86V66A10,10,0,0,0,76,56Z"/><rect height="30" width="10" x="42" y="56"/><path d="M104,0H24A24.07,24.07,0,0,0,0,24v80a24.07,24.07,0,0,0,24,24h80a24.07,24.07,0,0,0,24-24V24A24.07,24.07,0,0,0,104,0ZM96,92a4,4,0,0,1-4,4H36a4,4,0,0,1-4-4V36a4,4,0,0,1,4-4H92a4,4,0,0,1,4,4Z"/></svg>